<mxfile host="app.diagrams.net" agent="Mozilla/5.0 (Windows NT 10.0; Win64; x64) AppleWebKit/537.36 (KHTML, like Gecko) Chrome/135.0.0.0 Safari/537.36 Edg/135.0.0.0" version="26.2.14" pages="2">
  <diagram name="Multiple Processor" id="cbQFtfwFardZUqW_-XkD">
    <mxGraphModel dx="60062" dy="42724" grid="1" gridSize="10" guides="1" tooltips="1" connect="1" arrows="1" fold="1" page="1" pageScale="1" pageWidth="850" pageHeight="1100" math="0" shadow="0">
      <root>
        <mxCell id="0" />
        <mxCell id="1" parent="0" />
        <mxCell id="bwb34Cp5lU5lcW5Z-hM5-22" style="edgeStyle=orthogonalEdgeStyle;rounded=0;orthogonalLoop=1;jettySize=auto;html=1;exitX=0.5;exitY=1;exitDx=0;exitDy=0;" parent="1" edge="1">
          <mxGeometry relative="1" as="geometry">
            <mxPoint x="100" y="80" as="sourcePoint" />
            <mxPoint x="285" y="120" as="targetPoint" />
          </mxGeometry>
        </mxCell>
        <mxCell id="bwb34Cp5lU5lcW5Z-hM5-8" style="edgeStyle=orthogonalEdgeStyle;rounded=1;strokeColor=#616161;" parent="1" edge="1" />
        <mxCell id="bwb34Cp5lU5lcW5Z-hM5-9" style="edgeStyle=orthogonalEdgeStyle;rounded=1;strokeColor=#616161;" parent="1" edge="1" />
        <mxCell id="bwb34Cp5lU5lcW5Z-hM5-10" style="edgeStyle=orthogonalEdgeStyle;rounded=1;strokeColor=#616161;" parent="1" edge="1" />
        <mxCell id="bwb34Cp5lU5lcW5Z-hM5-11" style="edgeStyle=orthogonalEdgeStyle;rounded=1;strokeColor=#616161;" parent="1" edge="1" />
        <mxCell id="bwb34Cp5lU5lcW5Z-hM5-12" style="edgeStyle=orthogonalEdgeStyle;rounded=1;strokeColor=#616161;" parent="1" edge="1" />
        <mxCell id="bwb34Cp5lU5lcW5Z-hM5-13" style="edgeStyle=orthogonalEdgeStyle;rounded=1;strokeColor=#616161;" parent="1" edge="1" />
        <mxCell id="Zcx13L4oYeOgnKdU2iuu-1" value="" style="shape=image;verticalLabelPosition=bottom;labelBackgroundColor=default;verticalAlign=top;aspect=fixed;imageAspect=0;image=https://cdn-icons-png.flaticon.com/128/10224/10224836.png;" parent="1" vertex="1">
          <mxGeometry x="-3080" y="-2670" width="90" height="90" as="geometry" />
        </mxCell>
        <mxCell id="Zcx13L4oYeOgnKdU2iuu-2" value="Main&lt;div&gt;Memory&lt;/div&gt;" style="text;html=1;align=center;verticalAlign=middle;whiteSpace=wrap;rounded=0;" parent="1" vertex="1">
          <mxGeometry x="-3060" y="-2710" width="60" height="30" as="geometry" />
        </mxCell>
        <mxCell id="Zcx13L4oYeOgnKdU2iuu-4" value="Bus" style="rounded=1;whiteSpace=wrap;html=1;" parent="1" vertex="1">
          <mxGeometry x="-3310" y="-2530" width="570" height="20" as="geometry" />
        </mxCell>
        <mxCell id="Zcx13L4oYeOgnKdU2iuu-30" style="edgeStyle=orthogonalEdgeStyle;rounded=0;orthogonalLoop=1;jettySize=auto;html=1;exitX=0.5;exitY=1;exitDx=0;exitDy=0;entryX=0.5;entryY=0;entryDx=0;entryDy=0;" parent="1" source="Zcx13L4oYeOgnKdU2iuu-5" target="Zcx13L4oYeOgnKdU2iuu-9" edge="1">
          <mxGeometry relative="1" as="geometry" />
        </mxCell>
        <mxCell id="Zcx13L4oYeOgnKdU2iuu-5" value="" style="shape=image;verticalLabelPosition=bottom;labelBackgroundColor=default;verticalAlign=top;aspect=fixed;imageAspect=0;image=https://cdn-icons-png.flaticon.com/128/15496/15496371.png;" parent="1" vertex="1">
          <mxGeometry x="-3280" y="-2475" width="90" height="90" as="geometry" />
        </mxCell>
        <mxCell id="Zcx13L4oYeOgnKdU2iuu-31" style="edgeStyle=orthogonalEdgeStyle;rounded=0;orthogonalLoop=1;jettySize=auto;html=1;exitX=0.5;exitY=1;exitDx=0;exitDy=0;entryX=0.5;entryY=0;entryDx=0;entryDy=0;" parent="1" source="Zcx13L4oYeOgnKdU2iuu-6" target="Zcx13L4oYeOgnKdU2iuu-10" edge="1">
          <mxGeometry relative="1" as="geometry" />
        </mxCell>
        <mxCell id="Zcx13L4oYeOgnKdU2iuu-6" value="" style="shape=image;verticalLabelPosition=bottom;labelBackgroundColor=default;verticalAlign=top;aspect=fixed;imageAspect=0;image=https://cdn-icons-png.flaticon.com/128/15496/15496371.png;" parent="1" vertex="1">
          <mxGeometry x="-3150" y="-2475" width="90" height="90" as="geometry" />
        </mxCell>
        <mxCell id="Zcx13L4oYeOgnKdU2iuu-32" style="edgeStyle=orthogonalEdgeStyle;rounded=0;orthogonalLoop=1;jettySize=auto;html=1;exitX=0.5;exitY=1;exitDx=0;exitDy=0;entryX=0.5;entryY=0;entryDx=0;entryDy=0;" parent="1" source="Zcx13L4oYeOgnKdU2iuu-7" target="Zcx13L4oYeOgnKdU2iuu-11" edge="1">
          <mxGeometry relative="1" as="geometry" />
        </mxCell>
        <mxCell id="Zcx13L4oYeOgnKdU2iuu-7" value="" style="shape=image;verticalLabelPosition=bottom;labelBackgroundColor=default;verticalAlign=top;aspect=fixed;imageAspect=0;image=https://cdn-icons-png.flaticon.com/128/15496/15496371.png;" parent="1" vertex="1">
          <mxGeometry x="-2985" y="-2470" width="80" height="80" as="geometry" />
        </mxCell>
        <mxCell id="Zcx13L4oYeOgnKdU2iuu-8" value="" style="shape=image;verticalLabelPosition=bottom;labelBackgroundColor=default;verticalAlign=top;aspect=fixed;imageAspect=0;image=https://as2.ftcdn.net/v2/jpg/04/72/67/47/1000_F_472674757_xcvQ3eYvWrIAPUeNHwnyFHxEAMSlXXRo.jpg;" parent="1" vertex="1">
          <mxGeometry x="-2850" y="-2480" width="100" height="100" as="geometry" />
        </mxCell>
        <mxCell id="Zcx13L4oYeOgnKdU2iuu-9" value="" style="shape=image;verticalLabelPosition=bottom;labelBackgroundColor=default;verticalAlign=top;aspect=fixed;imageAspect=0;image=https://cdn-icons-png.flaticon.com/128/10256/10256306.png;" parent="1" vertex="1">
          <mxGeometry x="-3280" y="-2340" width="90" height="90" as="geometry" />
        </mxCell>
        <mxCell id="Zcx13L4oYeOgnKdU2iuu-10" value="" style="shape=image;verticalLabelPosition=bottom;labelBackgroundColor=default;verticalAlign=top;aspect=fixed;imageAspect=0;image=https://cdn-icons-png.flaticon.com/128/10256/10256306.png;" parent="1" vertex="1">
          <mxGeometry x="-3150" y="-2340" width="90" height="90" as="geometry" />
        </mxCell>
        <mxCell id="Zcx13L4oYeOgnKdU2iuu-11" value="" style="shape=image;verticalLabelPosition=bottom;labelBackgroundColor=default;verticalAlign=top;aspect=fixed;imageAspect=0;image=https://cdn-icons-png.flaticon.com/128/10256/10256306.png;" parent="1" vertex="1">
          <mxGeometry x="-2990" y="-2340" width="90" height="90" as="geometry" />
        </mxCell>
        <mxCell id="Zcx13L4oYeOgnKdU2iuu-12" value="&lt;h2&gt;&lt;br&gt;&lt;/h2&gt;" style="text;html=1;align=center;verticalAlign=middle;whiteSpace=wrap;rounded=0;" parent="1" vertex="1">
          <mxGeometry x="-1805" y="-1610" width="950" height="30" as="geometry" />
        </mxCell>
        <mxCell id="Zcx13L4oYeOgnKdU2iuu-13" value="Symmetric Multiprocessing" style="text;html=1;align=center;verticalAlign=middle;whiteSpace=wrap;rounded=0;fontFamily=Times New Roman;fontSize=17;" parent="1" vertex="1">
          <mxGeometry x="-3927.5" y="-2780" width="1795" height="30" as="geometry" />
        </mxCell>
        <mxCell id="Zcx13L4oYeOgnKdU2iuu-15" style="edgeStyle=orthogonalEdgeStyle;rounded=0;orthogonalLoop=1;jettySize=auto;html=1;entryX=0.482;entryY=-0.004;entryDx=0;entryDy=0;entryPerimeter=0;" parent="1" source="Zcx13L4oYeOgnKdU2iuu-1" target="Zcx13L4oYeOgnKdU2iuu-4" edge="1">
          <mxGeometry relative="1" as="geometry" />
        </mxCell>
        <mxCell id="Zcx13L4oYeOgnKdU2iuu-18" value="&lt;h3&gt;&lt;font style=&quot;font-size: 13px;&quot;&gt;Multiple Processor&lt;/font&gt;&lt;/h3&gt;" style="text;html=1;align=center;verticalAlign=middle;whiteSpace=wrap;rounded=0;" parent="1" vertex="1">
          <mxGeometry x="-2520" y="-2790" width="930" height="30" as="geometry" />
        </mxCell>
        <mxCell id="Zcx13L4oYeOgnKdU2iuu-24" style="edgeStyle=orthogonalEdgeStyle;rounded=0;orthogonalLoop=1;jettySize=auto;html=1;exitX=0.5;exitY=1;exitDx=0;exitDy=0;entryX=0.5;entryY=0;entryDx=0;entryDy=0;" parent="1" source="Zcx13L4oYeOgnKdU2iuu-19" target="Zcx13L4oYeOgnKdU2iuu-20" edge="1">
          <mxGeometry relative="1" as="geometry" />
        </mxCell>
        <mxCell id="Zcx13L4oYeOgnKdU2iuu-19" value="" style="shape=image;verticalLabelPosition=bottom;labelBackgroundColor=default;verticalAlign=top;aspect=fixed;imageAspect=0;image=https://cdn-icons-png.flaticon.com/128/689/689379.png;" parent="1" vertex="1">
          <mxGeometry x="-2100" y="-2700" width="90" height="90" as="geometry" />
        </mxCell>
        <mxCell id="Zcx13L4oYeOgnKdU2iuu-25" style="edgeStyle=orthogonalEdgeStyle;rounded=0;orthogonalLoop=1;jettySize=auto;html=1;exitX=0.5;exitY=1;exitDx=0;exitDy=0;entryX=0.5;entryY=0;entryDx=0;entryDy=0;" parent="1" source="Zcx13L4oYeOgnKdU2iuu-20" target="Zcx13L4oYeOgnKdU2iuu-23" edge="1">
          <mxGeometry relative="1" as="geometry" />
        </mxCell>
        <mxCell id="Zcx13L4oYeOgnKdU2iuu-27" style="edgeStyle=orthogonalEdgeStyle;rounded=0;orthogonalLoop=1;jettySize=auto;html=1;exitX=0.5;exitY=1;exitDx=0;exitDy=0;" parent="1" source="Zcx13L4oYeOgnKdU2iuu-20" target="Zcx13L4oYeOgnKdU2iuu-21" edge="1">
          <mxGeometry relative="1" as="geometry" />
        </mxCell>
        <mxCell id="Zcx13L4oYeOgnKdU2iuu-28" style="edgeStyle=orthogonalEdgeStyle;rounded=0;orthogonalLoop=1;jettySize=auto;html=1;exitX=0.5;exitY=1;exitDx=0;exitDy=0;entryX=0.5;entryY=0;entryDx=0;entryDy=0;" parent="1" source="Zcx13L4oYeOgnKdU2iuu-20" target="Zcx13L4oYeOgnKdU2iuu-22" edge="1">
          <mxGeometry relative="1" as="geometry" />
        </mxCell>
        <mxCell id="Zcx13L4oYeOgnKdU2iuu-20" value="" style="shape=image;verticalLabelPosition=bottom;labelBackgroundColor=default;verticalAlign=top;aspect=fixed;imageAspect=0;image=https://cdn-icons-png.flaticon.com/128/10224/10224836.png;" parent="1" vertex="1">
          <mxGeometry x="-2100" y="-2560" width="90" height="90" as="geometry" />
        </mxCell>
        <mxCell id="Zcx13L4oYeOgnKdU2iuu-21" value="" style="shape=image;verticalLabelPosition=bottom;labelBackgroundColor=default;verticalAlign=top;aspect=fixed;imageAspect=0;image=https://cdn-icons-png.flaticon.com/128/984/984442.png;" parent="1" vertex="1">
          <mxGeometry x="-2330" y="-2410" width="90" height="90" as="geometry" />
        </mxCell>
        <mxCell id="Zcx13L4oYeOgnKdU2iuu-22" value="" style="shape=image;verticalLabelPosition=bottom;labelBackgroundColor=default;verticalAlign=top;aspect=fixed;imageAspect=0;image=https://cdn-icons-png.flaticon.com/128/984/984442.png;" parent="1" vertex="1">
          <mxGeometry x="-1880" y="-2410" width="90" height="90" as="geometry" />
        </mxCell>
        <mxCell id="Zcx13L4oYeOgnKdU2iuu-23" value="" style="shape=image;verticalLabelPosition=bottom;labelBackgroundColor=default;verticalAlign=top;aspect=fixed;imageAspect=0;image=https://cdn-icons-png.flaticon.com/128/984/984442.png;" parent="1" vertex="1">
          <mxGeometry x="-2100" y="-2410" width="90" height="90" as="geometry" />
        </mxCell>
        <mxCell id="Zcx13L4oYeOgnKdU2iuu-33" style="edgeStyle=orthogonalEdgeStyle;rounded=0;orthogonalLoop=1;jettySize=auto;html=1;exitX=0.5;exitY=0;exitDx=0;exitDy=0;entryX=0.894;entryY=1.088;entryDx=0;entryDy=0;entryPerimeter=0;" parent="1" source="Zcx13L4oYeOgnKdU2iuu-8" target="Zcx13L4oYeOgnKdU2iuu-4" edge="1">
          <mxGeometry relative="1" as="geometry" />
        </mxCell>
        <mxCell id="Zcx13L4oYeOgnKdU2iuu-35" style="edgeStyle=orthogonalEdgeStyle;rounded=0;orthogonalLoop=1;jettySize=auto;html=1;exitX=0.5;exitY=0;exitDx=0;exitDy=0;entryX=0.641;entryY=1.035;entryDx=0;entryDy=0;entryPerimeter=0;" parent="1" source="Zcx13L4oYeOgnKdU2iuu-7" target="Zcx13L4oYeOgnKdU2iuu-4" edge="1">
          <mxGeometry relative="1" as="geometry" />
        </mxCell>
        <mxCell id="Zcx13L4oYeOgnKdU2iuu-36" style="edgeStyle=orthogonalEdgeStyle;rounded=0;orthogonalLoop=1;jettySize=auto;html=1;exitX=0.5;exitY=0;exitDx=0;exitDy=0;entryX=0.361;entryY=1.062;entryDx=0;entryDy=0;entryPerimeter=0;" parent="1" source="Zcx13L4oYeOgnKdU2iuu-6" target="Zcx13L4oYeOgnKdU2iuu-4" edge="1">
          <mxGeometry relative="1" as="geometry" />
        </mxCell>
        <mxCell id="Zcx13L4oYeOgnKdU2iuu-37" style="edgeStyle=orthogonalEdgeStyle;rounded=0;orthogonalLoop=1;jettySize=auto;html=1;exitX=0.5;exitY=0;exitDx=0;exitDy=0;entryX=0.131;entryY=1;entryDx=0;entryDy=0;entryPerimeter=0;" parent="1" source="Zcx13L4oYeOgnKdU2iuu-5" target="Zcx13L4oYeOgnKdU2iuu-4" edge="1">
          <mxGeometry relative="1" as="geometry" />
        </mxCell>
        <mxCell id="Zcx13L4oYeOgnKdU2iuu-39" value="cache" style="text;html=1;align=center;verticalAlign=middle;whiteSpace=wrap;rounded=0;" parent="1" vertex="1">
          <mxGeometry x="-3290" y="-2400" width="60" height="30" as="geometry" />
        </mxCell>
        <mxCell id="Zcx13L4oYeOgnKdU2iuu-40" value="&lt;span style=&quot;color: rgb(0, 0, 0); font-family: Helvetica; font-size: 12px; font-style: normal; font-variant-ligatures: normal; font-variant-caps: normal; font-weight: 400; letter-spacing: normal; orphans: 2; text-align: center; text-indent: 0px; text-transform: none; widows: 2; word-spacing: 0px; -webkit-text-stroke-width: 0px; white-space: normal; background-color: rgb(236, 236, 236); text-decoration-thickness: initial; text-decoration-style: initial; text-decoration-color: initial; display: inline !important; float: none;&quot;&gt;cache&lt;/span&gt;" style="text;whiteSpace=wrap;html=1;" parent="1" vertex="1">
          <mxGeometry x="-3150" y="-2400" width="70" height="40" as="geometry" />
        </mxCell>
        <mxCell id="Zcx13L4oYeOgnKdU2iuu-41" value="&lt;span style=&quot;color: rgb(0, 0, 0); font-family: Helvetica; font-size: 12px; font-style: normal; font-variant-ligatures: normal; font-variant-caps: normal; font-weight: 400; letter-spacing: normal; orphans: 2; text-align: center; text-indent: 0px; text-transform: none; widows: 2; word-spacing: 0px; -webkit-text-stroke-width: 0px; white-space: normal; background-color: rgb(236, 236, 236); text-decoration-thickness: initial; text-decoration-style: initial; text-decoration-color: initial; display: inline !important; float: none;&quot;&gt;cache&lt;/span&gt;" style="text;whiteSpace=wrap;html=1;" parent="1" vertex="1">
          <mxGeometry x="-2990" y="-2400" width="70" height="40" as="geometry" />
        </mxCell>
        <mxCell id="Zcx13L4oYeOgnKdU2iuu-46" value="Prpcessor" style="text;html=1;align=center;verticalAlign=middle;whiteSpace=wrap;rounded=0;" parent="1" vertex="1">
          <mxGeometry x="-3270" y="-2250" width="60" height="30" as="geometry" />
        </mxCell>
        <mxCell id="Zcx13L4oYeOgnKdU2iuu-47" value="&lt;span style=&quot;color: rgb(0, 0, 0); font-family: Helvetica; font-size: 12px; font-style: normal; font-variant-ligatures: normal; font-variant-caps: normal; font-weight: 400; letter-spacing: normal; orphans: 2; text-align: center; text-indent: 0px; text-transform: none; widows: 2; word-spacing: 0px; -webkit-text-stroke-width: 0px; white-space: normal; background-color: rgb(236, 236, 236); text-decoration-thickness: initial; text-decoration-style: initial; text-decoration-color: initial; display: inline !important; float: none;&quot;&gt;Processor&lt;/span&gt;" style="text;whiteSpace=wrap;html=1;" parent="1" vertex="1">
          <mxGeometry x="-3140" y="-2250" width="90" height="40" as="geometry" />
        </mxCell>
        <mxCell id="Zcx13L4oYeOgnKdU2iuu-48" value="&lt;span style=&quot;color: rgb(0, 0, 0); font-family: Helvetica; font-size: 12px; font-style: normal; font-variant-ligatures: normal; font-variant-caps: normal; font-weight: 400; letter-spacing: normal; orphans: 2; text-align: center; text-indent: 0px; text-transform: none; widows: 2; word-spacing: 0px; -webkit-text-stroke-width: 0px; white-space: normal; background-color: rgb(236, 236, 236); text-decoration-thickness: initial; text-decoration-style: initial; text-decoration-color: initial; display: inline !important; float: none;&quot;&gt;Processor&lt;/span&gt;" style="text;whiteSpace=wrap;html=1;" parent="1" vertex="1">
          <mxGeometry x="-2975" y="-2250" width="90" height="40" as="geometry" />
        </mxCell>
        <mxCell id="Zcx13L4oYeOgnKdU2iuu-49" value="Main Memory" style="text;html=1;align=center;verticalAlign=middle;whiteSpace=wrap;rounded=0;" parent="1" vertex="1">
          <mxGeometry x="-1990" y="-2535" width="60" height="30" as="geometry" />
        </mxCell>
        <mxCell id="Zcx13L4oYeOgnKdU2iuu-50" value="cpu" style="text;html=1;align=center;verticalAlign=middle;whiteSpace=wrap;rounded=0;" parent="1" vertex="1">
          <mxGeometry x="-1150" y="-1550" width="60" height="30" as="geometry" />
        </mxCell>
        <mxCell id="Zcx13L4oYeOgnKdU2iuu-51" value="CPU" style="text;html=1;align=center;verticalAlign=middle;whiteSpace=wrap;rounded=0;" parent="1" vertex="1">
          <mxGeometry x="-2000" y="-2660" width="60" height="30" as="geometry" />
        </mxCell>
        <mxCell id="Zcx13L4oYeOgnKdU2iuu-53" value="CPU" style="text;html=1;align=center;verticalAlign=middle;whiteSpace=wrap;rounded=0;" parent="1" vertex="1">
          <mxGeometry x="-1860" y="-2320" width="60" height="30" as="geometry" />
        </mxCell>
        <mxCell id="Zcx13L4oYeOgnKdU2iuu-54" value="CPU" style="text;html=1;align=center;verticalAlign=middle;whiteSpace=wrap;rounded=0;" parent="1" vertex="1">
          <mxGeometry x="-2085" y="-2320" width="60" height="30" as="geometry" />
        </mxCell>
        <mxCell id="Zcx13L4oYeOgnKdU2iuu-55" value="CPU" style="text;html=1;align=center;verticalAlign=middle;whiteSpace=wrap;rounded=0;" parent="1" vertex="1">
          <mxGeometry x="-2315" y="-2320" width="60" height="30" as="geometry" />
        </mxCell>
        <mxCell id="Zcx13L4oYeOgnKdU2iuu-56" value="I/O" style="text;html=1;align=center;verticalAlign=middle;whiteSpace=wrap;rounded=0;" parent="1" vertex="1">
          <mxGeometry x="-2830" y="-2370" width="60" height="30" as="geometry" />
        </mxCell>
      </root>
    </mxGraphModel>
  </diagram>
  <diagram name="Symmetric Multiprocessing (SMP)" id="1Be8HeSGGn251QQmrXe1">
    <mxGraphModel dx="827" dy="537" grid="1" gridSize="10" guides="1" tooltips="1" connect="1" arrows="1" fold="1" page="1" pageScale="1" pageWidth="827" pageHeight="1169">
      <root>
        <mxCell id="0" />
        <mxCell id="1" parent="0" />
        <mxCell id="8" value="Processor 1" style="rounded=1;strokeColor=#000000;fillColor=#ffe6cc;" vertex="1" parent="1">
          <mxGeometry x="60" y="60" width="100" height="60" as="geometry" />
        </mxCell>
        <mxCell id="9" value="Processor 2" style="rounded=1;strokeColor=#000000;fillColor=#ffe6cc;" vertex="1" parent="1">
          <mxGeometry x="240" y="60" width="100" height="60" as="geometry" />
        </mxCell>
        <mxCell id="10" value="Shared Memory" style="rounded=1;strokeColor=#000000;fillColor=#d5e8d4;" vertex="1" parent="1">
          <mxGeometry x="150" y="180" width="120" height="60" as="geometry" />
        </mxCell>
        <mxCell id="11" style="edgeStyle=orthogonalEdgeStyle;rounded=0;orthogonalLoop=1;jettySize=auto;html=1;" edge="1" parent="1" source="8" target="10">
          <mxGeometry relative="1" as="geometry" />
        </mxCell>
        <mxCell id="12" style="edgeStyle=orthogonalEdgeStyle;rounded=0;orthogonalLoop=1;jettySize=auto;html=1;" edge="1" parent="1" source="9" target="10">
          <mxGeometry relative="1" as="geometry" />
        </mxCell>
      </root>
    </mxGraphModel>
  </diagram>
</mxfile>
